Coordinates
version=1
nRows=24
nColumns=38
inDegrees=no

Units are S.I. units (second, meters, Newtons, ...)
If the header above contains a line with 'inDegrees', this indicates whether rotational values are in degrees (yes) or radians (no).

endheader
time	pelvis_tilt	pelvis_list	pelvis_rotation	pelvis_tx	pelvis_ty	pelvis_tz	hip_flexion_r	hip_adduction_r	hip_rotation_r	knee_angle_r	ankle_angle_r	subtalar_angle_r	mtp_angle_r	hip_flexion_l	hip_adduction_l	hip_rotation_l	knee_angle_l	ankle_angle_l	subtalar_angle_l	mtp_angle_l	lumbar_extension	lumbar_bending	lumbar_rotation	arm_flex_r	arm_add_r	arm_rot_r	elbow_flex_r	pro_sup_r	wrist_flex_r	wrist_dev_r	arm_flex_l	arm_add_l	arm_rot_l	elbow_flex_l	pro_sup_l	wrist_flex_l	wrist_dev_l
15	-0.611752	1.33148	2.04618	0.670184	0.793293	0.912892	0.809578	-0.203154	0.0166423	1.19174	0.0510489	0	0	0.637189	-0.0317865	-0.231857	1.06208	0.0326071	0	0	-0.187706	0.280748	-0.0992276	0.609291	-0.573417	1.5708	0.38821	0.216532	0	0	0.00180139	-0.275384	0.382643	0.686407	1.20735	0	0
15.01	-0.621533	1.33105	2.05541	0.670126	0.79373	0.911347	0.811653	-0.204598	0.0195855	1.19886	0.0552024	0	0	0.638798	-0.0302592	-0.233082	1.06928	0.0356834	0	0	-0.191313	0.282702	-0.0986641	0.612286	-0.575935	1.5708	0.387882	0.216831	0	0	0.00311749	-0.274162	0.386966	0.687304	1.20783	0	0
15.02	-0.63094	1.33062	2.06431	0.670086	0.794205	0.909882	0.813751	-0.206072	0.0223707	1.20542	0.0586471	0	0	0.640173	-0.0287617	-0.234157	1.07603	0.0386478	0	0	-0.194753	0.284454	-0.0981272	0.615296	-0.578408	1.5708	0.387666	0.217125	0	0	0.00464715	-0.272942	0.391506	0.68768	1.20867	0	0
15.03	-0.639527	1.33014	2.07237	0.670063	0.7947	0.908479	0.816069	-0.207427	0.0251505	1.21161	0.0614754	0	0	0.641479	-0.0273643	-0.234923	1.08233	0.0414119	0	0	-0.19803	0.286147	-0.0975144	0.618339	-0.580833	1.5708	0.387458	0.21703	0	0	0.00633835	-0.271707	0.396185	0.687735	1.20956	0	0
15.04	-0.647559	1.32973	2.07981	0.670093	0.795147	0.907118	0.818511	-0.208543	0.0280249	1.21745	0.0643726	0	0	0.642724	-0.0262072	-0.235395	1.08848	0.0443422	0	0	-0.201352	0.28773	-0.0967582	0.621254	-0.583051	1.5708	0.387446	0.216074	0	0	0.00824495	-0.27081	0.401351	0.687845	1.21023	0	0
15.05	-0.654968	1.32949	2.08664	0.670133	0.795602	0.905811	0.820928	-0.209551	0.0305768	1.22294	0.0672919	0	0	0.643793	-0.025246	-0.235768	1.09449	0.0470388	0	0	-0.20495	0.289538	-0.0961135	0.62447	-0.585002	1.5708	0.387069	0.215484	0	0	0.0102622	-0.269895	0.406405	0.687923	1.21071	0	0
15.06	-0.662257	1.32954	2.09317	0.670211	0.79604	0.904595	0.822653	-0.210334	0.0327667	1.22835	0.0703297	0	0	0.64444	-0.0245601	-0.236197	1.1002	0.0488719	0	0	-0.209143	0.291477	-0.0954441	0.628329	-0.586552	1.5708	0.386141	0.215302	0	0	0.0123274	-0.268778	0.410373	0.687946	1.21111	0	0
15.07	-0.68664	1.33262	2.12212	0.670127	0.797177	0.903337	0.793207	-0.228266	0.037267	1.17833	0.0837668	0	0	0.639468	-0.0194783	-0.235283	1.10652	0.0528866	0	0	-0.213036	0.291425	-0.101073	0.629038	-0.587355	1.5708	0.385718	0.214603	0	0	0.0124446	-0.270257	0.416393	0.689272	1.2122	0	0
15.08	-0.674119	1.32901	2.10398	0.670305	0.796961	0.902189	0.826184	-0.212487	0.0357988	1.24025	0.0729157	0	0	0.646546	-0.0230523	-0.236936	1.11165	0.0557187	0	0	-0.215267	0.295509	-0.0932408	0.634176	-0.591001	1.5708	0.385576	0.21472	0	0	0.017503	-0.266211	0.420636	0.686088	1.21459	0	0
15.09	-0.679885	1.329	2.10899	0.670413	0.797406	0.901059	0.827845	-0.213356	0.0372419	1.24493	0.0744887	0	0	0.647263	-0.0225987	-0.237552	1.11702	0.058483	0	0	-0.218811	0.297539	-0.092027	0.637211	-0.592593	1.5708	0.384758	0.214269	0	0	0.0197364	-0.264797	0.42375	0.685643	1.21603	0	0
15.1	-0.684633	1.32852	2.113	0.670568	0.797877	0.89992	0.830228	-0.214239	0.0387388	1.24896	0.0742541	0	0	0.648449	-0.0221439	-0.238196	1.1221	0.0585251	0	0	-0.221888	0.299235	-0.0918302	0.638539	-0.591425	1.56549	0.379778	0.232764	0	0	0.0201261	-0.262747	0.421259	0.686145	1.21936	0	0
15.11	-0.690923	1.32842	2.11839	0.670765	0.798298	0.898882	0.831608	-0.215041	0.0403055	1.25345	0.0754034	0	0	0.648934	-0.0217179	-0.239051	1.12687	0.060687	0	0	-0.225271	0.300753	-0.0902778	0.64233	-0.59318	1.5708	0.379811	0.227444	0	0	0.022781	-0.261715	0.424922	0.685375	1.21979	0	0
15.12	-0.696549	1.32807	2.1232	0.670964	0.798755	0.897876	0.832987	-0.215874	0.0416532	1.25838	0.0773661	0	0	0.649537	-0.0214245	-0.239936	1.13176	0.0630675	0	0	-0.22811	0.302106	-0.0885935	0.644881	-0.594769	1.5708	0.379525	0.222708	0	0	0.0255452	-0.260708	0.428878	0.684374	1.22027	0	0
15.13	-0.701414	1.32745	2.1274	0.671171	0.799215	0.89685	0.835173	-0.216768	0.0430612	1.26243	0.0789686	0	0	0.650491	-0.0210252	-0.240637	1.13639	0.0653213	0	0	-0.230103	0.30334	-0.0868849	0.646413	-0.596012	1.5708	0.378366	0.219225	0	0	0.0279935	-0.25974	0.432612	0.683519	1.22047	0	0
15.14	-0.705375	1.32673	2.13086	0.671379	0.79966	0.895832	0.83699	-0.2175	0.0442361	1.26644	0.0809362	0	0	0.651726	-0.0205214	-0.241055	1.14073	0.067557	0	0	-0.231687	0.304624	-0.0849722	0.647481	-0.597318	1.5708	0.376845	0.216567	0	0	0.0303664	-0.258783	0.436086	0.682851	1.22102	0	0
15.15	-0.708034	1.32597	2.13323	0.671592	0.800122	0.894837	0.838499	-0.218007	0.0451581	1.27051	0.0834999	0	0	0.65317	-0.0200386	-0.241183	1.14484	0.0698081	0	0	-0.232754	0.306161	-0.0830656	0.648047	-0.598743	1.5708	0.375502	0.21362	0	0	0.0324694	-0.257893	0.439341	0.682413	1.2226	0	0
15.16	-0.71002	1.32539	2.13537	0.671792	0.800613	0.893879	0.840155	-0.218508	0.0459441	1.27354	0.0859397	0	0	0.654449	-0.0195927	-0.240915	1.14885	0.0719645	0	0	-0.233535	0.307955	-0.0813557	0.648313	-0.600618	1.5708	0.374849	0.211319	0	0	0.0343366	-0.257085	0.441589	0.682413	1.22401	0	0
15.17	-0.711296	1.32508	2.13693	0.672017	0.801112	0.892955	0.841429	-0.2186	0.0467885	1.27661	0.0882763	0	0	0.655455	-0.0194737	-0.240451	1.15277	0.0740511	0	0	-0.234208	0.310031	-0.0796763	0.64843	-0.602566	1.5708	0.374177	0.209036	0	0	0.0358573	-0.256364	0.443333	0.68273	1.22664	0	0
15.18	-0.712794	1.32506	2.13872	0.672278	0.801588	0.892082	0.842195	-0.218324	0.0479444	1.28001	0.0900511	0	0	0.655993	-0.0195239	-0.239867	1.15643	0.0756756	0	0	-0.234978	0.312059	-0.0782364	0.648336	-0.604102	1.5708	0.373504	0.206843	0	0	0.0369119	-0.25576	0.444052	0.683451	1.23039	0	0
15.19	-0.714179	1.32505	2.14084	0.672508	0.802071	0.891255	0.842623	-0.218163	0.0491066	1.284	0.091883	0	0	0.656447	-0.0192998	-0.23902	1.15984	0.0774233	0	0	-0.235366	0.313989	-0.0771211	0.647782	-0.605696	1.5708	0.373103	0.204834	0	0	0.0376308	-0.255069	0.44314	0.684623	1.23464	0	0
15.2	-0.715471	1.32487	2.1431	0.67272	0.802569	0.89046	0.842888	-0.218162	0.0501553	1.28833	0.0941311	0	0	0.657097	-0.0186471	-0.238044	1.16297	0.079584	0	0	-0.235315	0.315688	-0.0763273	0.646805	-0.607274	1.5708	0.373156	0.202658	0	0	0.0377412	-0.254139	0.440014	0.686203	1.23904	0	0
15.21	-0.716929	1.32442	2.14561	0.672933	0.803086	0.88968	0.843876	-0.218307	0.0515019	1.292	0.0962512	0	0	0.657904	-0.0178407	-0.237165	1.16608	0.0818158	0	0	-0.234966	0.317132	-0.0757575	0.645751	-0.608757	1.5708	0.373135	0.200359	0	0	0.0372674	-0.252973	0.435451	0.688029	1.24416	0	0
15.22	-0.718775	1.32404	2.14869	0.673154	0.803582	0.888951	0.845198	-0.218522	0.0530632	1.29507	0.0978716	0	0	0.658536	-0.017036	-0.236224	1.16919	0.0838427	0	0	-0.234926	0.318384	-0.0752958	0.644517	-0.610236	1.5708	0.373615	0.198123	0	0	0.0366506	-0.251755	0.42997	0.689992	1.25025	0	0
15.23	-0.720507	1.32378	2.15165	0.673363	0.804073	0.888281	0.845957	-0.218647	0.0544404	1.29812	0.0994298	0	0	0.659072	-0.0161673	-0.235325	1.17191	0.0856902	0	0	-0.235186	0.319617	-0.0749861	0.643388	-0.61166	1.5708	0.374464	0.195633	0	0	0.0358634	-0.250484	0.423797	0.691995	1.25704	0	0
